#!OML:ASF E:\acrobat2\Project_11_07_03\Capture day 1\Session 1\Acrobat.ASF
:FULLY-SPECIFIED
:DEGREES
552
root 9.23228 25.3451 6.96284 -64.0359 -45.8873 -114.402
lowerback 12.9235 1.81414 4.96005
upperback 11.0548 3.28284 1.06077
thorax 4.68046 2.02955 -1.92428
lowerneck -3.27024 -1.49688 -0.0761257
upperneck 20.4018 -0.134901 -9.03739
head 6.72149 -0.886929 -2.92532
rclavicle 6.36111e-014 0
rhumerus -50.7215 -24.4255 -79.3443
rradius 13.1841
rwrist -8.5456
rhand 22.6743 -38.435
rfingers 7.12502
rthumb 47.0178 -61.0934
lclavicle 6.36111e-014 0
lhumerus -12.763 -14.2152 91.4588
lradius 59.7941
lwrist 20.2503
lhand -25.5671 -33.4088
lfingers 7.12502
lthumb 0.963821 -3.43119
rfemur -20.5111 -2.26709 20.0683
rtibia 33.7003
rfoot 15.7144 -20.0807
rtoes 28.2302
lfemur -33.3108 9.02147 -5.72903
ltibia 15.6293
lfoot 15.4318 -6.74013
ltoes 26.0067
553
root 9.2076 25.1676 6.88343 -58.9306 -45.1863 -121.541
lowerback 13.0465 1.936 6.13277
upperback 11.1781 3.58701 2.08625
thorax 4.79127 2.23834 -1.51917
lowerneck -2.89926 -0.304681 1.15221
upperneck 21.1729 1.49428 -9.10512
head 6.98421 -0.0394793 -3.06762
rclavicle -1.20861e-013 5.725e-014
rhumerus -47.2848 -21.9422 -84.1348
rradius 13.9481
rwrist -10.7071
rhand 25.7557 -36.2825
rfingers 7.12502
rthumb 49.8541 -57.5815
lclavicle -1.20861e-013 5.725e-014
lhumerus -11.4351 -18.4647 93.1684
lradius 59.7592
lwrist 19.1013
lhand -24.4734 -33.5492
lfingers 7.12502
lthumb 2.02014 -3.57903
rfemur -20.0269 0.220089 16.9602
rtibia 32.1408
rfoot 12.2413 -23.4487
rtoes 35.1726
lfemur -33.5355 8.60501 -11.0959
ltibia 15.1818
lfoot 15.054 -6.99977
ltoes 25.2391
554
root 9.18161 24.9822 6.81501 -54.0817 -44.0763 -128.318
lowerback 13.1371 2.04651 7.26231
upperback 11.1991 3.87707 3.10809
thorax 4.80779 2.43355 -1.09072
lowerneck -2.38985 0.897562 2.28957
upperneck 21.8706 3.12555 -9.01078
head 7.22314 0.815294 -3.13844
rclavicle 2.70347e-014 -7.95139e-014
rhumerus -44.522 -19.8057 -86.6508
rradius 14.4378
rwrist -11.6815
rhand 29.1598 -32.6328
rfingers 7.12502
rthumb 52.95 -52.1567
lclavicle 2.70347e-014 -7.95139e-014
lhumerus -10.1878 -22.9311 94.5533
lradius 59.942
lwrist 17.4904
lhand -23.314 -33.7145
lfingers 7.12502
lthumb 3.13983 -3.75792
rfemur -19.371 2.54825 13.8577
rtibia 31.2629
rfoot 7.4919 -26.4147
rtoes 42.5178
lfemur -32.816 7.33853 -15.7814
ltibia 14.6092
lfoot 13.7454 -6.32896
ltoes 23.2303
555
root 9.15643 24.7927 6.75904 -49.5954 -42.5284 -134.567
lowerback 13.1766 2.18558 8.24954
upperback 11.0807 4.19771 4.05464
thorax 4.69657 2.63051 -0.66632
lowerneck -1.76494 2.08539 3.37649
upperneck 22.5536 4.71322 -8.67813
head 7.45143 1.66175 -3.1233
rclavicle 4.73108e-014 -1.39944e-013
rhumerus -42.5819 -19.1456 -86.5468
rradius 14.0954
rwrist -10.4175
rhand 32.7635 -26.4184
rfingers 7.12502
rthumb 56.1728 -43.6733
lclavicle 4.73108e-014 -1.39944e-013
lhumerus -8.99072 -27.6638 95.5247
lradius 60.3782
lwrist 15.6423
lhand -21.8727 -34.1764
lfingers 7.12502
lthumb 4.53173 -4.24492
rfemur -18.5629 4.59955 10.7349
rtibia 30.9879
rfoot 1.7497 -28.2201
rtoes 49.267
lfemur -31.3647 5.89142 -20.088
ltibia 14.0677
lfoot 11.6427 -5.018
ltoes 20.3012
556
root 9.13298 24.6006 6.71695 -45.3986 -40.6745 -140.239
lowerback 13.0564 2.3875 9.16096
upperback 10.7998 4.58965 4.87987
thorax 4.50165 2.85551 -0.330145
lowerneck -1.14062 3.23661 4.431
upperneck 23.2803 6.2151 -8.03896
head 7.69758 2.48404 -3.0038
rclavicle -2.94201e-014 -1.59028e-014
rhumerus -41.5396 -20.8492 -83.7152
rradius 12.5789
rwrist -5.69696
rhand 35.6482 -16.8577
rfingers 7.12502
rthumb 58.7005 -31.9335
lclavicle -2.94201e-014 -1.59028e-014
lhumerus -7.71986 -32.6886 95.9807
lradius 61.091
lwrist 13.6367
lhand -20.2574 -34.8325
lfingers 7.12502
lthumb 6.09128 -4.94006
rfemur -17.7195 6.32091 7.70646
rtibia 31.2434
rfoot -3.99478 -28.4474
rtoes 54.4192
lfemur -29.5032 4.93978 -24.1499
ltibia 13.6912
lfoot 9.18826 -3.43736
ltoes 16.8278
557
root 9.11167 24.4072 6.68587 -41.3375 -38.6216 -145.441
lowerback 12.749 2.64681 10.0923
upperback 10.3257 5.04727 5.54665
thorax 4.21886 3.10969 -0.172503
lowerneck -0.646891 4.33806 5.45905
upperneck 24.0933 7.59896 -7.0445
head 7.98753 3.27107 -2.7613
rclavicle 3.04141e-014 -5.40694e-014
rhumerus -42.0949 -25.9078 -77.4752
rradius 10.1258
rwrist 4.32578
rhand 36.2961 -4.79745
rfingers 7.12502
rthumb 59.2604 -19.3314
lclavicle 3.04141e-014 -5.40694e-014
lhumerus -6.24952 -37.8589 95.8245
lradius 62.0503
lwrist 11.4977
lhand -18.5703 -35.6267
lfingers 7.12502
lthumb 7.71988 -5.78762
rfemur -16.9038 7.70464 4.92274
rtibia 31.9316
rfoot -8.79448 -27.2422
rtoes 58.0896
lfemur -27.4801 4.7803 -27.9019
ltibia 13.5357
lfoot 6.74881 -1.92669
ltoes 14.3218
558
root 9.09402 24.2111 6.65731 -37.221 -36.5043 -150.436
lowerback 12.2915 2.93938 11.2086
upperback 9.65626 5.55745 6.07998
thorax 3.84856 3.39152 -0.254116
lowerneck -0.447387 5.38988 6.45398
upperneck 24.9988 8.8521 -5.71013
head 8.34461 4.01739 -2.39033
rclavicle -5.48646e-014 -3.49861e-014
rhumerus -43.7121 -31.1357 -70.5434
rradius 7.46259
rwrist 16.1884
rhand 32.7446 6.61695
rfingers 7.12502
rthumb 56.1561 -10.6511
lclavicle -5.48646e-014 -3.49861e-014
lhumerus -4.34831 -43.0984 94.8965
lradius 63.2834
lwrist 9.35778
lhand -16.9626 -36.316
lfingers 7.12502
lthumb 9.27148 -6.53989
rfemur -16.1305 8.88947 2.7093
rtibia 33.0016
rfoot -12.3076 -25.1013
rtoes 60.6991
lfemur -25.4625 5.51724 -31.0223
ltibia 13.6298
lfoot 4.73577 -0.797826
ltoes 13.2853
559
root 9.08294 24.0111 6.62388 -32.8888 -34.3668 -155.438
lowerback 11.6949 3.24973 12.6313
upperback 8.76864 6.11339 6.4969
thorax 3.38378 3.69559 -0.616841
lowerneck -0.557177 6.39029 7.39526
upperneck 25.9249 9.96594 -4.10851
head 8.74231 4.71848 -1.90485
rclavicle -6.36111e-015 3.18055e-015
rhumerus -46.6974 -35.9682 -62.9422
rradius 5.51224
rwrist 29.2219
rhand 26.7636 13.9914
rfingers 7.12502
rthumb 50.7752 -6.81462
lclavicle -6.36111e-015 3.18055e-015
lhumerus -1.79936 -48.2592 93.0378
lradius 64.7662
lwrist 7.4499
lhand -15.3937 -36.9674
lfingers 7.12502
lthumb 10.785 -7.26425
rfemur -15.4586 9.99972 1.31619
rtibia 34.4423
rfoot -14.4896 -22.49
rtoes 62.5693
lfemur -23.6191 6.9245 -33.1743
ltibia 14.0207
lfoot 3.26059 -0.125854
ltoes 13.6192
560
root 9.08212 23.8055 6.58002 -28.3464 -32.1387 -160.528
lowerback 10.9391 3.56896 14.2887
upperback 7.71251 6.68912 6.85614
thorax 2.88246 3.99916 -1.14484
lowerneck -0.874194 7.33667 8.20194
upperneck 26.7024 10.9516 -2.38454
head 9.10074 5.36672 -1.34146
rclavicle -1.86858e-014 1.27222e-014
rhumerus -51.3477 -40.0056 -54.3862
rradius 5.0547
rwrist 42.3883
rhand 22.4035 15.9289
rfingers 7.12502
rthumb 46.7671 -6.83924
lclavicle -1.86858e-014 1.27222e-014
lhumerus 1.70493 -53.1322 90.0968
lradius 66.5404
lwrist 5.86521
lhand -13.8205 -37.2389
lfingers 7.12502
lthumb 12.3022 -7.62081
rfemur -14.8746 11.1177 0.841086
rtibia 36.2238
rfoot -15.1268 -20.1968
rtoes 63.7692
lfemur -22.0267 8.60257 -34.1785
ltibia 14.7809
lfoot 2.34895 0.202429
ltoes 15.2083
